<?xml version="1.0" standalone="no"?>
<!DOCTYPE svg PUBLIC "-//W3C//DTD SVG 20010904//EN"
 "http://www.w3.org/TR/2001/REC-SVG-20010904/DTD/svg10.dtd">
<svg version="1.0" xmlns="http://www.w3.org/2000/svg"
 width="500.000000pt" height="500.000000pt" viewBox="0 0 500.000000 500.000000"
 preserveAspectRatio="xMidYMid meet">

<g transform="translate(0.000000,500.000000) scale(0.100000,-0.100000)"
fill="#000000" stroke="none">
<path d="M0 2500 l0 -2500 2500 0 2500 0 0 2500 0 2500 -2500 0 -2500 0 0
-2500z m3480 0 l0 -980 -980 0 -980 0 0 980 0 980 980 0 980 0 0 -980z"/>
<path d="M1580 2500 l0 -920 920 0 920 0 0 920 0 920 -920 0 -920 0 0 -920z
m680 560 l0 -50 -70 0 -70 0 0 -205 0 -205 -60 0 -60 0 0 205 0 205 -70 0 -70
0 0 50 0 50 200 0 200 0 0 -50z m411 -199 c54 -134 99 -248 99 -252 0 -5 -26
-9 -58 -9 l-57 0 -18 50 -18 50 -99 0 -98 0 -17 -50 -17 -50 -59 0 c-32 0 -59
2 -59 5 0 3 46 118 102 256 l101 250 50 -3 49 -3 99 -244z m269 44 l0 -205 90
0 90 0 0 -50 0 -50 -150 0 -150 0 0 255 0 255 60 0 60 0 0 -205z m-740 -595
l0 -50 -95 0 -95 0 0 -50 0 -50 91 0 90 0 -3 -52 -3 -53 -88 -3 -88 -3 3 -47
3 -47 93 -3 92 -3 0 -49 0 -50 -150 0 -150 0 0 255 0 255 150 0 150 0 0 -50z
m290 -110 l85 -155 3 158 3 157 54 0 55 0 0 -255 0 -255 -57 0 -58 0 -85 155
-85 154 -3 -155 -3 -154 -54 0 -55 0 0 255 0 256 57 -3 58 -3 85 -155z m650
110 l0 -50 -70 0 -70 0 0 -205 0 -205 -60 0 -60 0 0 205 0 205 -70 0 -70 0 0
50 0 50 200 0 200 0 0 -50z"/>
<path d="M2493 2898 c-12 -35 -25 -71 -28 -80 -6 -16 0 -18 55 -18 46 0 61 3
58 13 -3 6 -15 42 -27 80 -13 37 -26 67 -29 67 -4 0 -17 -28 -29 -62z"/>
</g>
</svg>
